<svg width="512" height="512" viewBox="0 0 512 512" fill="none" xmlns="http://www.w3.org/2000/svg">
  <defs>
    <linearGradient id="bg" x1="76" y1="60" x2="436" y2="452" gradientUnits="userSpaceOnUse">
      <stop stop-color="#FFD36A"/>
      <stop offset="0.52" stop-color="#FFAA4D"/>
      <stop offset="1" stop-color="#FF7F56"/>
    </linearGradient>
    <linearGradient id="gloss" x1="256" y1="52" x2="256" y2="240" gradientUnits="userSpaceOnUse">
      <stop stop-color="white" stop-opacity="0.34"/>
      <stop offset="1" stop-color="white" stop-opacity="0"/>
    </linearGradient>
    <filter id="shadow" x="18" y="18" width="476" height="476" filterUnits="userSpaceOnUse" color-interpolation-filters="sRGB">
      <feFlood flood-opacity="0" result="BackgroundImageFix"/>
      <feColorMatrix in="SourceAlpha" type="matrix" values="0 0 0 0 0 0 0 0 0 0 0 0 0 0 0 0 0 0 127 0" result="hardAlpha"/>
      <feOffset dy="18"/>
      <feGaussianBlur stdDeviation="18"/>
      <feComposite in2="hardAlpha" operator="out"/>
      <feColorMatrix type="matrix" values="0 0 0 0 0.415686 0 0 0 0 0.188235 0 0 0 0 0.0705882 0 0 0 0.24 0"/>
      <feBlend mode="normal" in2="BackgroundImageFix" result="effect1_dropShadow_1_1"/>
      <feBlend mode="normal" in="SourceGraphic" in2="effect1_dropShadow_1_1" result="shape"/>
    </filter>
    <clipPath id="icon-mask">
      <rect x="54" y="36" width="404" height="404" rx="112"/>
    </clipPath>
  </defs>
  <g filter="url(#shadow)">
    <rect x="54" y="36" width="404" height="404" rx="112" fill="url(#bg)"/>
    <rect x="54" y="36" width="404" height="404" rx="112" fill="url(#gloss)"/>
    <rect x="54" y="36" width="404" height="404" rx="112" stroke="white" stroke-opacity="0.18" stroke-width="4"/>
    <g clip-path="url(#icon-mask)">
      <circle cx="404" cy="118" r="154" fill="white" fill-opacity="0.08"/>
      <circle cx="126" cy="380" r="188" fill="#F15A24" fill-opacity="0.12"/>
    </g>
    <g fill="#050505">
      <circle cx="182" cy="154" r="30"/>
      <circle cx="330" cy="154" r="30"/>
      <rect x="167" y="154" width="30" height="82" rx="15"/>
      <rect x="315" y="154" width="30" height="82" rx="15"/>
      <rect x="96" y="220" width="320" height="192" rx="64"/>
    </g>
    <rect x="144" y="272" width="224" height="96" rx="18" fill="white"/>
    <rect x="176" y="294" width="64" height="16" fill="#050505"/>
    <rect x="176" y="326" width="144" height="12" fill="#050505"/>
  </g>
</svg>
